<?xml version="1.0" encoding="UTF-8"?>
<svg width="32" height="32" viewBox="0 0 32 32" version="1.1" xmlns="http://www.w3.org/2000/svg">
  <circle cx="16" cy="16" r="16" fill="#151370"/>
  <path d="M9 8.5C9 8.22386 9.22386 8 9.5 8H22.5C22.7761 8 23 8.22386 23 8.5V23.5C23 23.7761 22.7761 24 22.5 24H9.5C9.22386 24 9 23.7761 9 23.5V8.5Z" fill="white"/>
  <path d="M11 10.5C11 10.2239 11.2239 10 11.5 10H20.5C20.7761 10 21 10.2239 21 10.5V21.5C21 21.7761 20.7761 22 20.5 22H11.5C11.2239 22 11 21.7761 11 21.5V10.5Z" fill="#151370"/>
  <path d="M13.5 13H18.5V14.2H15.1V15.9H18.1V17.1H15.1V18.8H18.5V20H13.5V13Z" fill="white"/>
</svg> 